PathFileType	4	(X/Y/Z)	C:\Users\Basilio\Documents\Thesis Gigler\squatting_fais\c3dfiles\044\SLS_back_pre3\markers_experimental.trc
DataRate	CameraRate	NumFrames	NumMarkers	Units	OrigDataRate	OrigDataStartFrame	OrigNumFrames
200.000000	200.000000	4	61	mm	200.000000	0	1405
Frame#	Time	FHD			LBHD			RBHD			C7			T10			LSHO			LUUPA			LMUPA			LDUPA			LLEP			LMEP			LUL			LRFIN			RSHO			RUPA1			RMUPA			RDUPA			RLEP			RMEP			RUL			LASI			RASI			USACR			LSACR			RSACR			LTHI1			LTHI2			LTHI3			LTHI4			LLFC			LMFC			LTIB1			LTIB2			LTIB3			LTIB4			LLMAL			LMMAL			LHEE			LMT1			LMT2			LMT5			RTHI			RTHI2			RTHI3			RTHI4			RLFC			RMFC			RTIB1			RTIB2			RTIB3			RTIB4			RLMAL			RHEE			RMT1			RMT2			RMT5			RMMAL			RUFIN			LRAD			*59			*60			
		X1	Y1	Z1	X2	Y2	Z2	X3	Y3	Z3	X4	Y4	Z4	X5	Y5	Z5	X6	Y6	Z6	X7	Y7	Z7	X8	Y8	Z8	X9	Y9	Z9	X10	Y10	Z10	X11	Y11	Z11	X12	Y12	Z12	X13	Y13	Z13	X14	Y14	Z14	X15	Y15	Z15	X16	Y16	Z16	X17	Y17	Z17	X18	Y18	Z18	X19	Y19	Z19	X20	Y20	Z20	X21	Y21	Z21	X22	Y22	Z22	X23	Y23	Z23	X24	Y24	Z24	X25	Y25	Z25	X26	Y26	Z26	X27	Y27	Z27	X28	Y28	Z28	X29	Y29	Z29	X30	Y30	Z30	X31	Y31	Z31	X32	Y32	Z32	X33	Y33	Z33	X34	Y34	Z34	X35	Y35	Z35	X36	Y36	Z36	X37	Y37	Z37	X38	Y38	Z38	X39	Y39	Z39	X40	Y40	Z40	X41	Y41	Z41	X42	Y42	Z42	X43	Y43	Z43	X44	Y44	Z44	X45	Y45	Z45	X46	Y46	Z46	X47	Y47	Z47	X48	Y48	Z48	X49	Y49	Z49	X50	Y50	Z50	X51	Y51	Z51	X52	Y52	Z52	X53	Y53	Z53	X54	Y54	Z54	X55	Y55	Z55	X56	Y56	Z56	X57	Y57	Z57	X58	Y58	Z58	X59	Y59	Z59	X60	Y60	Z60	X61	Y61	Z61	

1	0	-239.365463256836	1806.682495117188	-871.961364746094	-367.5676879882813	1759.318359375	-952.9934082031252	-409.6747436523439	1729.819213867188	-794.8405761718752	-403.0996704101564	1560.380004882813	-885.632751464844	-379.4005126953126	1258.91552734375	-887.7286376953127	-313.1950683593751	1594.035278320313	-1028.89306640625	-146.194808959961	1597.263916015625	-1121.673217773438	-120.5265579223633	1610.440185546875	-1079.660034179688	-77.72360992431642	1601.771362304688	-1120.057006835938	-19.70501708984375	1608.0078125	-1108.809204101563	-19.44004440307618	1533.749877929688	-1099.442504882813	233.9519042968751	1649.970336914063	-993.0168457031252	251.1286315917969	1669.701416015625	-892.2336425781252	-314.9946594238282	1577.816162109375	-728.7427978515626	-157.9057159423828	1574.720703125	-632.1539916992189	-131.6984558105469	1593.46875	-671.8755493164064	-88.85729217529298	1583.408081054688	-630.1391601562501	-29.37042427062989	1594.830444335938	-640.7661132812501	-21.44751358032227	1515.686889648438	-653.2277832031251	229.2257537841797	1644.431518554688	-747.1296997070314	-202.8361968994141	1066.7177734375	-991.2901611328127	-197.8108520507813	1056.89794921875	-773.1533203125002	-367.4320678710938	1117.642211914063	-878.7082519531252	-373.5037841796876	1084.545654296875	-904.5588378906252	-370.6607360839844	1088.367553710938	-847.5168457031252	-313.1750488281251	834.8793945312502	-1063.361572265625	-284.4203186035157	754.9911499023439	-1068.6181640625	-236.194808959961	753.8021850585939	-1062.5966796875	-314.9223632812501	703.9431152343751	-1055.134033203125	-309.3320007324219	543.9354248046876	-1047.888549804688	-297.2729492187501	530.6602172851564	-926.166931152344	-279.0657653808594	366.7888183593751	-988.2340087890627	-305.2276000976563	323.3784484863282	-1062.219604492188	-273.9092407226563	321.8322143554688	-1026.7587890625	-283.4885559082032	241.2973937988282	-1002.171264648438	-329.4975585937501	124.2890853881836	-1054.3603515625	-307.3168334960938	129.4117279052735	-971.2136840820315	-389.8266906738282	99.35029602050784	-1008.300659179688	-180.2921295166016	59.30805969238283	-985.9829711914065	-180.3574829101563	60.74145126342775	-1033.678466796875	-216.5495605468751	45.9596290588379	-1079.905517578125	-309.0087280273438	793.0351562500002	-690.5035400390626	-270.9365844726563	737.0280761718751	-686.4837036132814	-238.5446014404297	737.3870239257814	-692.5374755859376	-299.5267028808594	658.9376831054689	-702.2310791015626	-308.4772949218751	543.3386230468751	-706.2000732421876	-311.6777343750001	531.8015747070314	-831.0056152343752	-264.4573669433594	415.5584411621095	-726.7763671875001	-334.4234008789063	345.5742492675782	-677.6276855468751	-292.3395996093751	338.5269775390626	-693.8534545898439	-280.9297790527344	286.7989501953126	-717.2286376953126	-341.9337463378907	132.3134918212891	-696.1143798828126	-400.0757751464845	105.167236328125	-740.5802612304689	-193.4507598876954	63.43758010864259	-765.1438598632814	-189.1689605712891	58.16739654541017	-729.6399536132814	-226.9579620361329	43.89144134521485	-675.2290039062501	nan	nan	nan	nan	nan	nan	nan	nan	nan	nan	nan	nan	nan	nan	nan	
2	0.005	-239.3555755615235	1806.672241210938	-871.997985839844	-367.5866088867188	1759.316650390625	-953.0671997070315	-409.5138549804689	1729.809814453125	-794.9217529296877	-402.9841613769532	1560.340087890625	-885.7391357421877	-379.3439636230469	1258.916015625	-887.7293701171877	-313.3695068359376	1594.054077148438	-1029.011840820313	-146.1245574951172	1597.288940429688	-1121.7470703125	-120.4336700439453	1610.479125976563	-1079.745483398438	-77.5881805419922	1601.833618164063	-1120.157958984375	-19.7098560333252	1608.088989257813	-1108.8603515625	-19.43088150024414	1533.822387695313	-1099.463500976563	233.9830932617188	1650.002807617188	-993.0877685546877	251.2241363525391	1669.681518554688	-892.2744750976565	-314.9065856933594	1577.85498046875	-728.8278808593751	-158.1423034667969	1575.210327148438	-632.7138671875001	-131.6388092041016	1593.476196289063	-671.9271850585939	-88.70163726806642	1583.422973632813	-630.2254638671876	-29.35508155822755	1594.854736328125	-640.8319702148439	-21.38579750061036	1515.711181640625	-653.3158569335939	229.2726135253907	1644.437377929688	-747.1846923828126	-202.8233489990235	1066.71826171875	-991.3801269531252	-197.7675323486329	1056.877075195313	-773.1220703125002	-367.4066772460938	1117.699584960938	-878.559509277344	-373.4953613281251	1084.605224609375	-904.4691162109377	-370.6256103515626	1088.385131835938	-847.405456542969	-312.5551147460938	834.640319824219	-1064.43408203125	-284.4346618652344	754.9534301757814	-1068.685302734375	-236.1985015869141	753.7662353515626	-1062.56494140625	-314.9569702148438	703.9011840820314	-1055.169311523438	-309.2867126464844	543.9433593750001	-1047.915283203125	-297.1121826171876	530.5908813476564	-926.1491699218752	-278.9968566894532	366.8053894042969	-988.275329589844	-304.1613769531251	324.1193237304688	-1062.109008789063	-273.8670349121094	321.8164672851563	-1026.697631835938	-283.4747009277344	241.3036193847657	-1002.135803222656	-329.6036682128907	124.3434677124024	-1054.297119140625	-307.2884521484376	129.3855285644532	-971.1799316406252	-389.2989807128907	98.2741622924805	-1007.62060546875	-180.5235137939453	59.70652770996095	-985.8430786132815	-180.3277740478516	60.75400543212892	-1033.643798828125	-216.4796295166016	46.01958465576173	-1079.929809570313	-308.9793395996094	793.0130004882815	-690.4995117187501	-270.9391479492188	737.0166015625001	-686.5042724609376	-238.5286865234376	737.3259277343751	-692.5552978515626	-299.5075683593751	658.9332275390626	-702.2205200195314	-308.4543762207032	543.3331298828126	-706.1641845703126	-311.6813354492188	531.7759399414064	-830.9552001953127	-264.4504394531251	415.5610656738282	-726.7576293945314	-334.4207763671876	345.5736999511719	-677.6047363281251	-292.3043823242188	338.5155639648438	-693.8715209960939	-280.8779907226563	286.7406921386719	-717.2000732421876	-341.9493103027344	132.2728576660157	-696.0543212890626	-400.0928344726564	105.1772689819336	-740.5736694335939	-193.4573516845704	63.45412445068361	-765.1148071289064	-189.1610565185547	58.14956283569337	-729.5742187500001	-226.9529724121094	43.88993835449219	-675.1953735351564	nan	nan	nan	nan	nan	nan	nan	nan	nan	nan	nan	nan	nan	nan	nan	
3	0.01	-239.3762207031251	1806.659057617188	-872.0900878906252	-367.4901733398438	1759.347045898438	-953.1671142578127	-409.443328857422	1729.87255859375	-795.0498046875002	-402.9121704101564	1560.361572265625	-885.8052368164065	-379.2354125976563	1258.896484375	-887.7431640625002	-313.3732604980469	1594.047119140625	-1029.136474609375	-146.0298461914063	1597.31103515625	-1121.8623046875	-121.0812530517578	1610.948120117188	-1079.908813476563	-77.56975555419923	1601.839111328125	-1120.271606445313	-19.72325134277344	1608.151123046875	-1108.984252929688	-19.36148071289063	1533.842041015625	-1099.56396484375	234.0614318847657	1650.0791015625	-993.2204589843752	251.2552490234376	1669.769775390625	-892.3397216796877	-314.8719787597657	1577.877319335938	-728.8996582031251	-157.7745666503907	1574.671997070313	-632.3374023437501	-131.5638427734375	1593.484497070313	-672.0090942382814	-88.66933441162111	1583.417602539063	-630.3095092773439	-29.30064201354981	1594.865966796875	-640.9069213867189	-21.37145233154297	1515.728637695313	-653.4395751953126	229.2866363525391	1644.457885742188	-747.2332763671876	-202.8950653076172	1066.73974609375	-991.3186035156252	-197.6904296875001	1056.837768554688	-773.154235839844	-367.3985290527344	1117.7314453125	-878.4695434570315	-373.5509948730469	1084.68798828125	-904.3957519531252	-372.1622314453126	1088.943481445313	-846.8062133789065	-312.5939636230469	834.5933837890627	-1064.510009765625	-284.3945007324219	754.9299316406251	-1068.7578125	-236.2378997802735	753.7675781250001	-1062.568969726563	-314.8897094726563	703.8417358398439	-1055.3095703125	-309.1864929199219	543.9194946289064	-1047.905029296875	-297.0921630859376	530.5660400390626	-926.1827392578127	-278.8099060058594	366.8269042968751	-988.2414550781252	-305.1133728027344	323.3886718750001	-1062.15576171875	-273.8488159179688	321.8221740722657	-1026.673706054688	-283.2626342773438	241.3378906250001	-1002.111511230469	-329.5575561523438	124.3167266845703	-1054.329833984375	-307.2804260253907	129.3867340087891	-971.1423950195315	-389.8250122070314	99.38361358642581	-1008.292297363281	-180.290267944336	59.31466293334962	-985.9519042968752	-180.314453125	60.76054763793947	-1033.608520507813	-216.5104064941407	46.06578445434571	-1079.927124023438	-308.9465332031251	792.9995727539065	-690.5978393554689	-270.8915710449219	736.9949340820314	-686.4503784179689	-238.4809875488282	737.3062133789064	-692.5294189453126	-299.4030456542969	658.8861694335939	-702.2197875976564	-308.4188842773438	543.3334960937501	-706.1334838867189	-311.6507568359376	531.7706298828126	-830.901794433594	-264.4083557128907	415.5300903320314	-726.7462158203126	-334.3711547851563	345.5659484863282	-677.5722045898439	-292.2756347656251	338.5209655761719	-693.7867431640626	-280.8222656250001	286.7321777343751	-717.1756591796876	-341.9275512695313	132.2245635986328	-696.0703735351564	-400.0863037109376	105.1542892456055	-740.5664062500001	-193.427230834961	63.44518280029298	-765.1090087890626	-189.1488952636719	58.15639877319337	-729.5564575195314	-226.9424438476563	43.91247940063477	-675.2153930664064	nan	nan	nan	nan	nan	nan	nan	nan	nan	nan	nan	nan	nan	nan	nan	
4	0.015	-239.346420288086	1806.67041015625	-872.1521606445315	-367.4010620117188	1759.325439453125	-953.2798461914065	-409.3489990234376	1729.950073242188	-795.1456298828127	-402.9571838378907	1560.420288085938	-885.8790283203127	-379.1491394042969	1258.90234375	-887.7025146484377	-313.2335205078126	1594.089599609375	-1029.214965820313	-146.0938568115235	1597.335205078125	-1121.935424804688	-120.2279891967774	1610.720825195313	-1079.730712890625	-77.58837890625001	1601.949340820313	-1120.31005859375	-19.64170455932618	1608.208862304688	-1109.079345703125	-19.36125755310059	1533.891235351563	-1099.655395507813	234.1087036132813	1650.186157226563	-993.3110351562502	251.2848663330079	1669.862060546875	-892.4302368164065	-314.7821350097657	1577.923461914063	-729.0230102539064	-158.0452270507813	1575.139282226563	-632.9035034179689	-131.5433654785157	1593.483642578125	-672.0678710937501	-88.61517333984376	1583.42822265625	-630.3822631835939	-29.29574584960938	1594.8798828125	-640.9512329101564	-21.32961654663086	1515.716796875	-653.5508422851564	229.378646850586	1644.47412109375	-747.3552856445314	-203.0528259277344	1066.703979492188	-991.3237915039065	-197.3174133300782	1056.230590820313	-773.399353027344	-367.3522033691407	1117.775512695313	-878.348083496094	-373.5679321289063	1084.782592773438	-904.2957763671877	-372.1084899902344	1089.005126953125	-846.7183227539065	-312.5964660644532	834.5784912109377	-1064.653442382813	-284.3815307617188	754.9125976562501	-1068.8330078125	-236.1465911865235	753.7893066406251	-1062.56787109375	-314.8816833496094	703.8144531250001	-1055.33984375	-309.0722351074219	543.8772583007814	-1047.921997070313	-296.9800720214844	530.5802612304689	-926.1406860351565	-278.6087951660157	366.8852233886719	-988.2319946289065	-305.0521545410157	323.3378601074219	-1062.116577148438	-273.8118286132813	321.7819213867188	-1026.706665039063	-283.3173828125001	241.2828063964844	-1002.047180175781	-329.4759216308594	124.3446121215821	-1054.298950195313	-307.2932434082032	129.4075317382813	-971.123718261719	-389.8174133300782	99.41403961181643	-1008.2919921875	-180.5372467041016	59.70313644409181	-985.7949218750002	-180.314453125	60.76055145263673	-1033.608520507813	-216.4589385986329	46.10858154296876	-1079.931640625	-308.9100952148438	792.9930419921877	-690.6121826171876	-270.8883972167969	736.9869384765626	-686.4606323242189	-238.3677673339844	737.2750244140626	-692.5726928710939	-299.3409423828126	658.8272705078126	-702.2175292968751	-308.4091491699219	543.3215942382814	-706.0994262695314	-311.5974121093751	531.7095947265626	-830.8958129882815	-264.4313659667969	415.5303955078126	-726.7215576171876	-334.3738098144532	345.5459594726563	-677.5316162109376	-292.2249450683594	338.4868469238282	-693.8119506835939	-280.8538818359376	286.7138366699219	-717.1763916015626	-341.8861694335938	132.120101928711	-696.0493164062501	-400.0765380859376	105.1330642700196	-740.5669555664064	-193.4422454833985	63.43112945556642	-765.0687866210939	-189.1482086181641	58.15647506713869	-729.5549926757814	-226.9694519042969	43.86756896972657	-675.2395629882814	nan	nan	nan	nan	nan	nan	nan	nan	nan	nan	nan	nan	nan	nan	nan	
